# xmcd CD database file
# Copyright (C) 1993-1998 Ti Kan
#
# Track frame offsets:
#	182
#	17245
#	37582
#	49270
#	63282
#	74920
#	82720
#	93445
#	103120
#	121257
#	129857
#	142395
#	152170
#	163095
#	170770
#	186595
#
# Disc length: 2645 seconds
#
# Revision: 1
# Processed by: cddbd v1.4b41PL1 Copyright (c) Steve Scherf et al.
# Submitted via: CDValet v3.31 - Copyright (c) 1997 Greg Leichner
#
DISCID=e20a5310
DTITLE=Frank Sinatra - Frank Sinatra
DYEAR=1900
DGENRE=
TTITLE0=Night And Day
TTITLE1=Begin The Beguine
TTITLE2=It's Been A Long, Long Time
TTITLE3=With A Song In My Heart
TTITLE4=As Time Goes By
TTITLE5=It Had To Be You
TTITLE6=How Deep Is The Ocean
TTITLE7=I Only Have Eyes For You
TTITLE8=Dancing In The Dark
TTITLE9=Easter Parade
TTITLE10=Weep No More My Lady
TTITLE11=She's Funny That Way
TTITLE12=Someone To Watch Over Me
TTITLE13=It's Only A Paper Moon
TTITLE14=I Fall In Love Too Easily
TTITLE15=I've Heard That Song Before
EXTD=
EXTT0=
EXTT1=
EXTT2=
EXTT3=
EXTT4=
EXTT5=
EXTT6=
EXTT7=
EXTT8=
EXTT9=
EXTT10=
EXTT11=
EXTT12=
EXTT13=
EXTT14=
EXTT15=
PLAYORDER=
